Coordinates
version=1
nRows=22
nColumns=24
inDegrees=yes

Units are S.I. units (second, meters, Newtons, ...)
Angles are in degrees.

endheader
time	pelvis_tilt	pelvis_list	pelvis_rotation	pelvis_tx	pelvis_ty	pelvis_tz	hip_flexion_r	hip_adduction_r	hip_rotation_r	knee_angle_r	ankle_angle_r	subtalar_angle_r	mtp_angle_r	hip_flexion_l	hip_adduction_l	hip_rotation_l	knee_angle_l	ankle_angle_l	subtalar_angle_l	mtp_angle_l	lumbar_extension	lumbar_bending	lumbar_rotation
      1.88000000	     14.19060369	      5.57380940	     -3.70412524	      0.46073941	      0.94780593	      0.29433709	      6.18439704	     -8.06728618	     -1.88500117	    -63.30220954	     19.56139528	      5.00797401	     46.17884961	     -6.88734054	     10.59411861	     -9.27411188	    -15.30053539	     20.74401615	      6.16835289	     17.64722686	    -26.82258815	     -7.80638081	      6.07959437
      1.88500000	     14.43135868	      5.49682377	     -3.47504122	      0.46638182	      0.94854242	      0.29392036	      6.37433454	     -8.03408688	     -2.24381669	    -62.59798843	     19.88652600	      5.11991171	     46.07123398	     -7.81818043	     10.52581024	     -9.12897551	    -14.79476917	     20.91550830	      6.52880253	     17.52673239	    -27.09985687	     -7.58340712	      5.82344238
      1.89000000	     14.34673722	      5.47565186	     -3.38990255	      0.47165612	      0.94865978	      0.29393486	      7.10136087	     -7.97196668	     -2.35371793	    -62.04145649	     20.13936247	      5.22821804	     45.98326304	     -8.28204016	     10.47647103	     -9.28594853	    -14.43167784	     21.14605257	      7.07627206	     17.49815701	    -27.04002728	     -7.49143664	      5.61246463
      1.89500000	     14.42676832	      5.38818766	     -3.36307728	      0.47690643	      0.94896776	      0.29415855	      7.57330439	     -7.80894659	     -2.39513857	    -61.32326333	     20.45113919	      5.28978016	     45.44326145	     -8.90710976	     10.35779215	     -9.47255355	    -14.11558097	     21.40214043	      7.64990078	     17.24213301	    -27.14451388	     -7.37371854	      5.58082939
      1.90000000	     14.49741080	      5.39993976	     -3.26842667	      0.48235247	      0.94926916	      0.29382964	      7.96052287	     -7.86688057	     -2.58432185	    -60.45977439	     20.93546895	      5.55536920	     45.29461184	     -9.62249972	     10.41443351	     -9.23016402	    -13.62239956	     21.45606111	      7.73893503	     17.05686173	    -27.22628867	     -7.26961764	      5.38475579
      1.90500000	     14.60436564	      5.38224623	     -3.10842004	      0.48783829	      0.94954410	      0.29355890	      8.29845352	     -7.88366570	     -2.84990806	    -59.60514709	     21.23731798	      5.80663757	     45.15956230	    -10.35281054	     10.41771337	     -8.93415112	    -13.18908782	     21.61340975	      7.86557033	     16.95315263	    -27.36359355	     -7.12660530	      5.13101937
      1.91000000	     14.81120649	      5.33469719	     -2.99402492	      0.49331560	      0.94984983	      0.29326885	      8.55041745	     -7.84789161	     -3.03189681	    -58.76549797	     21.27269788	      5.73921439	     44.96428237	    -11.18578654	     10.41166447	     -8.69981234	    -12.76098759	     21.76443751	      7.84838270	     16.80271317	    -27.59448474	     -6.97112807	      4.96808755
      1.91500000	     14.97582097	      5.32807467	     -2.87432948	      0.49888525	      0.95005799	      0.29293076	      8.80642388	     -7.89297750	     -3.26871687	    -57.85672339	     21.44565445	      5.96941931	     44.84028641	    -11.95930401	     10.44363297	     -8.40034946	    -12.37661389	     21.92056173	      7.86336828	     16.65761396	    -27.76925184	     -6.84807093	      4.77773104
      1.92000000	     15.07561126	      5.32933613	     -2.76039828	      0.50424925	      0.95010004	      0.29266102	      9.11272971	     -7.91808200	     -3.47558845	    -56.82923275	     21.74508828	      6.17388618	     44.75250829	    -12.62457703	     10.46269748	     -8.15578967	    -12.02917945	     22.05790275	      7.94049453	     16.53774798	    -27.89529536	     -6.73897783	      4.59348597
      1.92500000	     15.24045383	      5.28702214	     -2.57894754	      0.50963664	      0.95027201	      0.29228522	      9.26739366	     -7.90082481	     -3.75910950	    -55.66598251	     22.03266723	      6.38495062	     44.37211735	    -13.34231381	     10.41349582	     -7.83822160	    -11.75585292	     22.23989967	      8.06128571	     16.22243013	    -28.10011441	     -6.55848801	      4.35481397
      1.93000000	     15.32059991	      5.22184357	     -2.41687709	      0.51500355	      0.95023334	      0.29202532	      9.51212120	     -7.85185873	     -3.99325694	    -54.52269847	     22.19644474	      6.67281393	     44.08865355	    -13.95068884	     10.34156954	     -7.57685214	    -11.49291623	     22.44223910	      8.10151552	     16.02226675	    -28.21659005	     -6.36317646	      4.13002799
      1.93500000	     15.42556428	      5.20630258	     -2.28470846	      0.52033075	      0.95015217	      0.29195096	      9.71783678	     -7.83003457	     -4.15643727	    -53.32320857	     22.34222289	      6.85900900	     43.90284615	    -14.56405892	     10.31623460	     -7.34066746	    -11.23705051	     22.59247047	      8.12090165	     15.92460950	    -28.35032828	     -6.24066901	      3.95376490
      1.94000000	     15.57594118	      5.11549682	     -2.20932931	      0.52581883	      0.95012213	      0.29209653	      9.80817405	     -7.67675844	     -4.23771815	    -52.00860247	     22.48883214	      6.93551199	     43.13574547	    -15.21432727	     10.18673031	     -7.38713095	    -11.04299696	     22.97283346	      8.52966076	     14.57618719	    -28.51534840	     -6.09070010	      3.84145247
      1.94500000	     15.64094105	      5.09750456	     -2.02090854	      0.53110583	      0.94985142	      0.29202051	     10.02313411	     -7.65741301	     -4.52444871	    -50.72883018	     22.50241755	      6.90629131	     43.16268922	    -15.68502870	     10.09686208	     -7.27747892	    -11.01551939	     23.32142922	      8.87167304	     14.49630482	    -28.62135719	     -5.96298813	      3.55596473
      1.95000000	     15.85364119	      4.99500587	     -1.80532380	      0.53667397	      0.94992455	      0.29201868	      9.92441796	     -7.50158321	     -4.74216216	    -49.23606561	     22.43118797	      6.83813885	     43.17845562	    -16.39686565	      9.90855383	     -7.10909710	    -10.86639789	     23.54014705	      9.13887486	     14.29304165	    -28.86797607	     -5.74169395	      3.29055125
      1.95500000	     16.02355581	      4.90805645	     -1.69379482	      0.54213534	      0.94980943	      0.29205502	      9.90287354	     -7.36165302	     -4.89209455	    -47.73128532	     22.34919043	      6.81665501	     43.21351282	    -17.01709236	      9.76834834	     -7.05628567	    -10.77697805	     23.86419378	      9.40580340	     14.10813554	    -29.06299485	     -5.57206866	      3.13492595
      1.96000000	     16.14124208	      4.83337846	     -1.58073469	      0.54753502	      0.94953721	      0.29225914	      9.93319923	     -7.24019546	     -5.13453991	    -46.19199296	     22.12663970	      6.58399029	     44.00176408	    -17.50664563	      9.60087878	     -7.17931400	    -10.82202840	     24.32999942	      9.96161206	     12.60188724	    -29.20757652	     -5.43053806	      3.02131094
      1.96500000	     16.35118302	      4.83737234	     -1.40634346	      0.55288540	      0.94931644	      0.29223214	      9.85148144	     -7.23856812	     -5.37756823	    -44.70531004	     21.89058452	      6.60327917	     43.89827453	    -18.13187100	      9.53286304	     -6.97475533	    -10.79561863	     24.51971442	     10.14436107	     12.38687133	    -29.46142226	     -5.31245409	      2.75591029
      1.97000000	     16.46071478	      4.79315811	     -1.28845218	      0.55828149	      0.94898633	      0.29237890	      9.85228676	     -7.13230213	     -5.49278744	    -43.11634022	     21.62203977	      6.48013538	     43.80259409	    -18.65596873	      9.41243936	     -6.91435414	    -10.74477687	     24.79570146	     10.44824728	     12.12187184	    -29.60268665	     -5.19537788	      2.57114729
      1.97500000	     16.59691575	      4.73553379	     -1.16262093	      0.56380022	      0.94867114	      0.29262527	      9.74823193	     -6.98518889	     -5.63910562	    -41.43528288	     21.23961243	      6.00984478	     44.26590481	    -19.15092660	      9.25354700	     -6.96263351	    -10.83632165	     25.29180019	     10.96489902	      9.75146108	    -29.76256563	     -5.07904277	      2.36574347
      1.98000000	     16.72678293	      4.76835245	     -1.00718019	      0.56934794	      0.94825781	      0.29260625	      9.66647618	     -6.99104019	     -5.84637562	    -39.83433952	     20.92552874	      5.88065314	     44.19414787	    -19.71599860	      9.21433821	     -6.67795557	    -10.80610558	     25.63541565	     11.02430517	      9.71324859	    -29.91621374	     -5.01304040	      2.05328662
      1.98500000	     16.83281441	      4.77953985	     -0.89570615	      0.57483156	      0.94776518	      0.29272381	      9.55835522	     -6.93812703	     -5.93982205	    -38.09026436	     20.59997871	      5.66336793	     44.14929277	    -20.20301241	      9.15488437	     -6.55975724	    -10.82464172	     25.92413557	     11.11275709	      9.77381460	    -30.04713138	     -4.93879513	      1.86052598
